<svg width="60" height="57" viewBox="0 0 60 57" fill="none" xmlns="http://www.w3.org/2000/svg">
<path d="M47.76 3.00003C47.4488 2.11988 46.8716 1.35829 46.1083 0.820775C45.3451 0.283261 44.4335 -0.00356535 43.5 3.34553e-05H10.5C9.56646 -0.00356535 8.65492 0.283261 7.89165 0.820775C7.12838 1.35829 6.55117 2.11988 6.24 3.00003L0 21V45C0 45.7957 0.31607 46.5587 0.87868 47.1213C1.44129 47.6839 2.20435 48 3 48H6C6.79565 48 7.55871 47.6839 8.12132 47.1213C8.68393 46.5587 9 45.7957 9 45V42H24C24 36.4305 26.2125 31.089 30.1508 27.1508C34.089 23.2125 39.4305 21 45 21C48.116 20.9879 51.1938 21.6855 54 23.04V21L47.76 3.00003ZM10.5 33C9.60998 33 8.73995 32.7361 7.99993 32.2416C7.25991 31.7472 6.68314 31.0444 6.34254 30.2221C6.00195 29.3998 5.91283 28.495 6.08647 27.6221C6.2601 26.7492 6.68868 25.9474 7.31802 25.318C7.94736 24.6887 8.74918 24.2601 9.62209 24.0865C10.495 23.9129 11.3998 24.002 12.2221 24.3426C13.0443 24.6832 13.7471 25.2599 14.2416 26C14.7361 26.74 15 27.61 15 28.5C15 29.6935 14.5259 30.8381 13.682 31.682C12.8381 32.5259 11.6935 33 10.5 33ZM6 18L10.5 4.50003H43.5L48 18H6Z" fill="#C11818"/>
<path d="M47.625 36.375L39.375 44.625M47.625 44.625L39.375 36.375L47.625 44.625Z" stroke="#C11818" stroke-width="2.5" stroke-linecap="round"/>
<path d="M43.5 54.25C51.0939 54.25 57.25 48.0939 57.25 40.5C57.25 32.9061 51.0939 26.75 43.5 26.75C35.9061 26.75 29.75 32.9061 29.75 40.5C29.75 48.0939 35.9061 54.25 43.5 54.25Z" stroke="#C11818" stroke-width="2.5"/>
</svg>
